<?xml version="1.0" standalone="no"?>
<!DOCTYPE svg PUBLIC "-//W3C//DTD SVG 20010904//EN"
 "http://www.w3.org/TR/2001/REC-SVG-20010904/DTD/svg10.dtd">
<svg version="1.0" xmlns="http://www.w3.org/2000/svg"
 width="1920.000000pt" height="1920.000000pt" viewBox="0 0 1920.000000 1920.000000"
 preserveAspectRatio="xMidYMid meet">

<g transform="translate(0.000000,1920.000000) scale(0.100000,-0.100000)"
fill="#000000" stroke="none">
<path d="M10540 16974 c-151 -11 -222 -19 -365 -42 -30 -5 71 -8 260 -8 360 0
516 -17 705 -80 136 -45 240 -126 285 -221 24 -49 25 -178 3 -248 -70 -224
-310 -529 -658 -835 -46 -41 -102 -91 -125 -111 -36 -32 -191 -155 -256 -204
-279 -211 -326 -244 -659 -460 -116 -75 -224 -136 -535 -298 -496 -259 -949
-507 -1275 -697 -69 -40 -139 -80 -156 -90 -36 -21 -152 -91 -241 -146 -34
-22 -102 -63 -150 -93 -132 -81 -504 -328 -623 -414 -58 -42 -138 -100 -179
-129 -40 -29 -99 -73 -131 -98 -32 -25 -95 -74 -141 -110 -91 -71 -240 -193
-304 -250 -394 -346 -705 -673 -944 -993 -480 -646 -727 -1301 -749 -1992 -6
-184 4 -443 22 -550 4 -22 12 -69 17 -105 26 -158 56 -292 99 -440 37 -125
105 -329 130 -385 9 -22 37 -87 60 -145 161 -388 477 -915 812 -1355 186 -243
657 -795 679 -795 4 0 -4 28 -17 63 -73 184 -152 416 -194 572 -74 273 -119
507 -142 740 -17 167 -17 662 0 824 29 284 105 619 202 886 61 168 62 172 123
310 163 373 417 777 741 1180 307 382 797 867 1287 1272 26 21 82 67 125 103
145 121 450 355 713 548 299 218 566 406 986 693 303 208 600 412 775 534
1057 733 1576 1210 1799 1653 151 300 142 684 -24 1027 -123 255 -318 434
-560 515 -106 35 -133 38 -85 8 107 -66 146 -96 216 -166 124 -124 188 -235
232 -397 19 -75 21 -294 3 -380 -55 -251 -194 -482 -450 -748 -64 -67 -340
-314 -411 -369 -19 -15 -92 -71 -162 -125 -123 -95 -195 -148 -343 -253 -81
-57 -658 -442 -727 -486 -44 -27 -261 -165 -408 -259 -65 -42 -161 -103 -530
-335 -107 -67 -224 -141 -260 -164 -36 -23 -107 -69 -158 -102 -123 -78 -880
-580 -957 -635 -33 -23 -89 -62 -125 -87 -95 -66 -341 -243 -371 -266 -14 -12
-39 -31 -55 -43 -762 -569 -1323 -1099 -1724 -1626 -85 -113 -197 -275 -243
-352 -92 -154 -144 -249 -191 -349 -150 -314 -229 -585 -276 -939 -15 -116
-12 -464 5 -592 20 -148 53 -326 74 -390 5 -16 21 -68 34 -115 14 -47 44 -132
66 -189 23 -58 39 -106 37 -108 -9 -10 -193 377 -266 562 -85 213 -174 492
-195 610 -3 17 -12 57 -19 90 -16 67 -30 140 -46 231 -14 80 -41 499 -35 539
2 16 7 80 10 141 31 615 272 1236 704 1814 30 41 60 80 66 86 5 6 35 42 65 79
201 248 513 564 755 765 23 19 93 78 156 130 63 53 126 105 140 115 118 89
442 330 474 353 97 70 541 364 598 397 9 5 79 49 155 96 172 108 405 248 570
343 70 40 204 117 297 171 168 98 248 143 375 212 36 20 70 39 75 43 6 4 33
20 60 35 28 15 91 50 140 78 50 28 124 69 165 92 1275 713 1969 1208 2285
1630 117 156 195 350 194 485 0 171 -106 363 -283 514 -118 101 -288 176 -478
212 -120 23 -362 31 -548 18z"/>
<path d="M9670 16484 c-535 -139 -940 -281 -1445 -509 -640 -289 -1247 -676
-1751 -1116 -123 -108 -432 -422 -538 -548 -296 -349 -534 -742 -691 -1141
-73 -187 -167 -512 -151 -527 3 -4 6 1 6 10 0 19 105 230 161 323 223 370 541
755 976 1184 226 224 373 358 613 560 298 251 768 593 1126 820 196 124 384
240 389 240 2 0 39 21 82 46 312 185 855 463 1198 614 173 76 177 83 25 44z"/>
<path d="M11965 13820 c-33 -4 -90 -18 -125 -30 -63 -21 -197 -83 -213 -99 -4
-5 31 -27 78 -49 157 -76 268 -157 411 -304 163 -166 270 -319 394 -563 80
-159 155 -339 214 -520 45 -137 86 -295 76 -295 -25 0 -236 -22 -287 -30 -35
-6 -93 -15 -130 -20 -129 -20 -210 -35 -428 -81 -223 -46 -636 -175 -807 -252
-318 -144 -512 -264 -695 -433 -142 -131 -183 -216 -183 -384 0 -81 3 -102 19
-121 17 -22 20 -22 42 -7 13 8 76 60 139 115 63 54 153 128 200 164 76 59 113
85 270 194 387 268 967 527 1480 659 142 36 373 86 401 86 13 0 21 -25 38
-117 12 -65 26 -138 31 -163 5 -25 14 -76 20 -115 6 -38 13 -83 16 -100 7 -42
33 -292 40 -396 l7 -86 -94 -11 c-52 -6 -119 -14 -149 -17 -150 -15 -335 -41
-462 -65 -32 -5 -82 -14 -110 -20 -651 -118 -1618 -444 -1618 -546 0 -7 5 -14
12 -14 6 0 1 -11 -11 -24 -31 -33 -20 -46 40 -46 37 0 83 14 182 54 188 77
394 149 622 216 124 36 436 115 491 125 l42 6 20 -63 c34 -102 44 -176 40
-298 l-3 -114 -35 -8 c-91 -20 -332 -67 -390 -77 -163 -26 -205 -31 -355 -42
-174 -13 -507 -7 -616 11 l-65 11 -177 -178 c-188 -190 -185 -185 -109 -198
290 -49 557 -54 852 -15 41 5 143 17 225 25 151 16 244 26 410 45 50 5 137 14
195 20 58 6 125 13 150 16 25 2 88 9 140 14 52 6 136 14 185 20 175 20 559 59
584 60 2 0 1 -33 -2 -72 -21 -235 -28 -312 -37 -388 -14 -113 -29 -223 -40
-290 -6 -30 -19 -113 -30 -185 -61 -382 -174 -855 -306 -1275 -25 -80 -50
-154 -55 -165 -4 -11 -19 -54 -32 -95 -115 -354 -372 -938 -575 -1300 -41 -74
-86 -155 -100 -180 -87 -156 -302 -483 -436 -665 -78 -106 -191 -251 -206
-265 -3 -3 -49 -57 -101 -120 -121 -145 -400 -432 -554 -570 -162 -144 -227
-208 -129 -125 6 6 47 39 90 75 319 267 797 744 1074 1074 36 43 72 85 80 95
31 35 106 126 125 152 11 15 74 98 139 184 189 250 463 668 615 938 191 339
394 767 520 1097 18 47 37 94 41 105 32 77 149 426 187 555 71 243 129 475
174 690 39 190 34 162 64 355 36 231 43 283 50 351 4 33 10 66 14 72 8 14 113
28 446 63 285 29 148 33 -253 7 -101 -6 -177 -7 -182 -2 -5 5 -5 57 1 124 5
63 12 197 16 297 l6 182 91 52 c76 44 320 189 377 224 9 5 32 18 50 29 158 87
818 551 804 564 -3 3 -18 -5 -33 -19 -15 -13 -40 -34 -57 -45 -16 -11 -61 -42
-99 -68 -200 -139 -630 -376 -984 -542 l-137 -64 -5 68 c-3 37 -7 138 -8 225
-2 86 -5 163 -7 170 -2 6 -9 80 -15 162 -6 83 -13 161 -15 175 -2 14 -9 61
-14 105 -16 117 -28 197 -49 312 l-19 102 41 6 c23 4 227 5 453 3 226 -2 410
-2 409 -1 -3 4 -216 29 -351 42 -60 6 -168 12 -240 12 -71 1 -174 4 -229 8
l-98 6 -43 165 c-48 184 -109 386 -135 445 -5 11 -21 52 -36 90 -124 324 -325
646 -516 831 -134 130 -306 233 -445 268 -78 19 -221 27 -298 16z m1013 -3036
l3 -51 -118 -7 c-190 -10 -571 -54 -745 -86 -32 -5 -82 -14 -110 -19 -29 -6
-78 -15 -108 -21 -30 -6 -66 -13 -80 -16 -54 -10 -360 -85 -408 -100 -15 -5
-15 -4 -1 5 19 12 315 103 449 138 126 32 141 36 310 72 80 17 163 36 185 41
43 11 278 51 415 70 47 7 105 16 130 20 72 13 75 11 78 -46z m10 -251 l-3
-167 -75 -27 c-74 -27 -413 -138 -540 -178 -36 -11 -68 -17 -72 -13 -4 4 -3
25 2 47 22 96 5 251 -38 349 -12 27 -21 51 -19 53 5 4 99 21 242 43 142 22
202 30 290 41 49 6 91 12 93 14 1 1 30 3 63 4 l59 1 -2 -167z m2 -425 c0 -40
-3 -117 -7 -170 l-6 -98 -86 0 c-80 0 -212 -6 -625 -30 -93 -6 -171 -9 -173
-7 -2 2 32 17 74 32 234 85 770 310 798 336 20 19 25 6 25 -63z"/>
<path d="M11475 12675 c-476 -158 -945 -335 -1209 -455 -511 -233 -665 -310
-986 -495 -36 -21 -79 -46 -97 -56 -115 -65 -566 -362 -593 -389 -3 -3 -27
-21 -53 -40 -189 -138 -380 -297 -576 -481 -644 -604 -1083 -1279 -1337 -2058
-63 -193 -130 -456 -158 -626 -28 -166 -49 -331 -66 -520 -13 -142 -13 -684 0
-817 44 -451 62 -575 131 -918 68 -335 188 -753 344 -1190 46 -130 175 -449
252 -625 82 -185 323 -679 398 -815 26 -47 61 -110 78 -140 259 -473 550 -927
884 -1378 113 -152 146 -189 100 -110 -28 48 -42 74 -137 243 -415 740 -802
1806 -1004 2770 -45 213 -57 278 -72 370 -8 50 -19 117 -25 150 -120 718 -147
1605 -70 2275 27 230 46 364 61 435 5 22 16 78 25 125 8 47 18 96 21 110 2 14
9 45 14 70 45 226 171 651 260 875 4 11 25 63 45 115 278 701 700 1345 1254
1913 142 145 481 451 591 532 15 11 79 59 141 106 174 131 334 240 579 395
310 195 875 475 1320 653 116 46 62 35 -115 -24z"/>
<path d="M13648 10753 c12 -2 32 -2 45 0 12 2 2 4 -23 4 -25 0 -35 -2 -22 -4z"/>
<path d="M9011 10344 c-16 -21 -21 -41 -21 -89 0 -63 5 -81 61 -203 42 -90
107 -286 125 -375 56 -278 57 -469 5 -736 -17 -86 -94 -331 -137 -435 -14 -34
14 -8 55 52 82 122 148 284 194 482 43 185 52 272 51 510 0 195 -3 239 -23
330 -43 198 -109 342 -203 440 -54 56 -77 62 -107 24z"/>
<path d="M14220 9900 c0 -5 4 -10 9 -10 6 0 13 5 16 10 3 6 -1 10 -9 10 -9 0
-16 -4 -16 -10z"/>
<path d="M12672 9381 c-4 -34 -127 -353 -203 -526 -89 -206 -303 -626 -383
-754 -13 -20 -25 -41 -27 -46 -28 -72 -398 -635 -559 -850 -349 -467 -748
-904 -1045 -1143 -207 -167 -355 -266 -510 -342 -331 -162 -502 -156 -883 33
-125 61 -313 172 -392 230 -196 145 -230 171 -375 298 -254 222 -496 502 -698
808 -51 76 -98 147 -105 158 -36 53 61 -129 126 -237 198 -327 430 -619 719
-900 276 -270 518 -453 760 -576 267 -136 473 -151 753 -54 548 189 1217 827
1845 1760 289 429 558 905 725 1280 28 63 55 124 60 135 100 216 206 588 197
694 -2 25 -4 40 -5 32z"/>
<path d="M14046 9125 c-4 -16 -11 -48 -16 -70 -5 -22 -18 -78 -29 -125 -10
-47 -27 -121 -36 -165 -20 -92 -121 -495 -135 -540 -5 -16 -17 -57 -26 -90
-297 -1065 -754 -2054 -1277 -2765 -133 -180 -152 -205 -247 -319 -52 -63
-120 -144 -150 -180 -77 -94 -478 -492 -584 -581 -175 -147 -233 -193 -381
-304 -129 -96 -365 -258 -446 -305 -13 -8 -62 -38 -109 -66 -124 -76 -320
-185 -448 -249 -62 -31 -112 -58 -112 -60 0 -6 158 55 285 109 681 291 1415
832 1994 1470 161 177 341 389 406 476 11 15 53 71 94 125 80 106 261 362 261
370 0 2 16 26 35 54 109 155 356 596 467 834 272 583 410 1049 488 1639 22
168 11 599 -19 737 l-8 35 -7 -30z"/>
<path d="M9245 8409 c-86 -20 -225 -109 -225 -145 0 -35 45 -38 530 -35 261 2
485 7 497 12 13 5 23 15 23 23 0 23 -69 77 -149 115 -99 46 -168 52 -271 21
-98 -30 -195 -30 -274 -1 -64 23 -72 23 -131 10z"/>
<path d="M9760 7511 c-35 -11 -102 -46 -146 -76 -48 -33 -67 -32 -149 10 -91
45 -160 59 -260 51 -98 -8 -139 -20 -285 -86 -200 -91 -235 -102 -328 -101
-72 0 -83 -2 -80 -16 2 -9 26 -30 53 -46 28 -16 69 -47 93 -69 79 -73 120 -79
242 -39 30 11 84 25 120 32 71 15 321 19 385 6 106 -20 179 -20 250 2 100 31
173 35 305 17 117 -17 162 -27 238 -52 98 -32 172 -13 287 76 37 28 84 59 105
70 45 23 56 38 41 53 -7 7 -22 7 -51 -3 -41 -13 -47 -12 -258 58 -119 40 -253
81 -297 92 -90 23 -227 34 -265 21z"/>
<path d="M9973 6880 c-72 -32 -159 -52 -205 -48 -23 3 -89 13 -144 24 -99 18
-105 18 -230 -1 -209 -30 -202 -30 -268 4 -43 23 -62 29 -72 21 -21 -18 22
-78 85 -117 31 -20 81 -60 112 -90 50 -48 63 -56 125 -69 137 -28 335 -9 418
40 22 14 64 47 93 73 28 26 78 72 112 101 34 29 61 60 61 68 0 20 -37 17 -87
-6z"/>
<path d="M10232 3965 c-30 -25 -50 -45 -45 -45 9 0 112 89 103 89 -3 0 -29
-20 -58 -44z"/>
</g>
</svg>
